# xmcd
# 
# Track frame offsets:
#     150
#     17937
#     35847
#     50532
#     73145
#     87072
#     105460
#     117785
#     132987
#     150137
#     173947
#     174842
#     186917
#     197895
#     203580
#     226325
#     242295
#     260887
#     276315
#     291232
#     297690
# 
# Disc length: 4198
# 
# Revision: 8
# Processed by: cddbd v1.5.2PL0 Copyright (c) Steve Scherf et al.
# Submitted via: fre:ac v1.0.17
# 
DISCID=36106415
DTITLE=John Lennon - Wonsaponatime
DYEAR=1998
DGENRE=Rock
TTITLE0=I'm Losing You
TTITLE1=Working Class Hero
TTITLE2=God
TTITLE3=How Do You Sleep?
TTITLE4=Imagine (take 1)
TTITLE5=Baby Please Don't Go
TTITLE6=Oh My Love
TTITLE7=God Save Oz
TTITLE8=I Found Out
TTITLE9=Woman is the Nigger of the World (live)
TTITLE10="A Kiss is Just a Kiss"
TTITLE11=Be Bop a Lula
TTITLE12=Rip it Up - Ready Teddy
TTITLE13=What You Got
TTITLE14=Nobody Loves You When You're Down and Out
TTITLE15=I Don't Wanna Face It
TTITLE16=Real Love
TTITLE17=Only You
TTITLE18=Grow Old With Me
TTITLE19=Sean's "In the Sky"
TTITLE20=Serve Yourself
EXTD=
EXTT0=
EXTT1=
EXTT2=
EXTT3=
EXTT4=
EXTT5=
EXTT6=
EXTT7=
EXTT8=
EXTT9=
EXTT10=
EXTT11=
EXTT12=
EXTT13=
EXTT14=
EXTT15=
EXTT16=
EXTT17=
EXTT18=
EXTT19=
EXTT20=
PLAYORDER=
